<mxfile host="app.diagrams.net" agent="Mozilla/5.0 (Windows NT 10.0; Win64; x64) AppleWebKit/537.36 (KHTML, like Gecko) Chrome/134.0.0.0 Safari/537.36" version="26.1.3">
  <diagram name="Page-1" id="tptrItbEWlcjOuiL4rK6">
    <mxGraphModel dx="1050" dy="522" grid="1" gridSize="10" guides="1" tooltips="1" connect="1" arrows="1" fold="1" page="1" pageScale="1" pageWidth="827" pageHeight="1169" math="0" shadow="0">
      <root>
        <mxCell id="0" />
        <mxCell id="1" parent="0" />
        <mxCell id="c4ljgmaWJESwMZTwx-YB-1" value="" style="rounded=0;whiteSpace=wrap;html=1;fillColor=#d5e8d4;strokeColor=#82b366;" vertex="1" parent="1">
          <mxGeometry x="620" y="70" width="120" height="260" as="geometry" />
        </mxCell>
        <mxCell id="c4ljgmaWJESwMZTwx-YB-2" value="" style="triangle;whiteSpace=wrap;html=1;rotation=90;fillColor=#008a00;fontColor=#ffffff;strokeColor=#005700;" vertex="1" parent="1">
          <mxGeometry x="650" y="250" width="60" height="80" as="geometry" />
        </mxCell>
        <mxCell id="c4ljgmaWJESwMZTwx-YB-3" value="" style="rounded=0;whiteSpace=wrap;html=1;fillColor=#b1ddf0;strokeColor=#10739e;" vertex="1" parent="1">
          <mxGeometry x="40" y="90" width="190" height="110" as="geometry" />
        </mxCell>
        <mxCell id="c4ljgmaWJESwMZTwx-YB-4" value="" style="ellipse;whiteSpace=wrap;html=1;aspect=fixed;fillColor=#bac8d3;strokeColor=#23445d;" vertex="1" parent="1">
          <mxGeometry x="50" y="100" width="85" height="85" as="geometry" />
        </mxCell>
        <mxCell id="c4ljgmaWJESwMZTwx-YB-5" value="" style="ellipse;whiteSpace=wrap;html=1;aspect=fixed;" vertex="1" parent="1">
          <mxGeometry x="200" y="180" width="20" height="20" as="geometry" />
        </mxCell>
        <mxCell id="c4ljgmaWJESwMZTwx-YB-6" value="" style="ellipse;whiteSpace=wrap;html=1;aspect=fixed;" vertex="1" parent="1">
          <mxGeometry x="200" y="90" width="20" height="20" as="geometry" />
        </mxCell>
        <mxCell id="c4ljgmaWJESwMZTwx-YB-7" value="" style="ellipse;whiteSpace=wrap;html=1;aspect=fixed;" vertex="1" parent="1">
          <mxGeometry x="40" y="90" width="20" height="20" as="geometry" />
        </mxCell>
        <mxCell id="c4ljgmaWJESwMZTwx-YB-8" value="" style="ellipse;whiteSpace=wrap;html=1;aspect=fixed;" vertex="1" parent="1">
          <mxGeometry x="40" y="180" width="20" height="20" as="geometry" />
        </mxCell>
      </root>
    </mxGraphModel>
  </diagram>
</mxfile>
